# xmcd CD database file
#
# Track frame offsets:
#	150
#	19138
#	42221
#	57731
#	74280
#	98548
#	122708
#	139758
#	176458
#	187083
#	207659
#	223430
#	239987
#
# Disc length: 3392 seconds
#
# Revision: 0
# Processed by: cddbd v1.5.2PL0 Copyright (c) Steve Scherf et al.
# Submitted via: CDex 1.51
#
DISCID=d40d3e0d
DTITLE=Siryel Blues Band - Strange Man
DYEAR=2000
DGENRE=Blues
TTITLE0=Let me Love You
TTITLE1=Guantanamo
TTITLE2=Yveline
TTITLE3=Quand tu me touches
TTITLE4=Nobody's business
TTITLE5=Dis moi bébé
TTITLE6=Palace of the king
TTITLE7=Consequences
TTITLE8=Stop breaking down
TTITLE9=Drifting blues
TTITLE10=Strange man
TTITLE11=Shook me
TTITLE12=Little queen of spades
EXTD=YEAR: 2000
EXTT0=
EXTT1=
EXTT2=
EXTT3=
EXTT4=
EXTT5=
EXTT6=
EXTT7=
EXTT8=
EXTT9=
EXTT10=
EXTT11=
EXTT12=
PLAYORDER=
